<svg width="60" height="60" viewBox="0 0 60 60" fill="none" xmlns="http://www.w3.org/2000/svg">
<path fill-rule="evenodd" clip-rule="evenodd" d="M8.90564 44.6934C5.82624 44.2297 2.84687 43.4438 0 42.3696V59.9999H8.90564V44.6934ZM48.8937 29.8652C52.6939 25.5526 55.7358 20.5028 57.7994 14.9452V59.9999H48.8937V29.8652ZM12.2234 45.0641V59.9999H21.129V44.8159C19.2699 45.0575 17.3758 45.182 15.4539 45.182C14.3677 45.182 13.2905 45.1423 12.2234 45.0641ZM24.4469 44.2537C27.5408 43.6056 30.521 42.6297 33.3525 41.3622V59.9999H24.4469V44.2537ZM36.6703 39.7071C39.8878 37.9309 42.8758 35.7633 45.5759 33.2652V59.9999H36.6703V39.7071Z" fill="#FF78AF"/>
<path d="M1.36492 37.7077C0.855441 37.5258 0.292463 37.7891 0.106398 38.3109L0.0597733 38.4417C-0.127028 38.9656 0.138575 39.5468 0.65346 39.719C11.2116 43.2506 22.7243 42.6389 32.8679 37.983C43.0051 33.3299 52.0511 23.6955 56.3045 13.3752C56.5164 12.8611 55.3868 11.5372 54.88 11.34L45.4825 9.78767C44.8738 9.55083 44.2161 9.98908 44.1462 10.6561C42.445 26.9039 28.7662 39.5661 12.1439 39.5661C8.36321 39.5661 4.73478 38.911 1.36492 37.7077Z" fill="#E7286A"/>
<path d="M49.3926 0L60 13.6092H38.7852L49.3926 0Z" fill="#E7286A"/>
</svg>
