<svg width="60" height="60" viewBox="0 0 60 60" fill="none" xmlns="http://www.w3.org/2000/svg">
<path fill-rule="evenodd" clip-rule="evenodd" d="M8.90565 44.6934C5.82625 44.2296 2.84687 43.4437 0 42.3695V60H8.90565V44.6934ZM48.8942 29.8651C52.6944 25.5525 55.7363 20.5026 57.7999 14.945V60H48.8942V29.8651ZM12.2236 45.0641V60H21.1292V44.8159C19.2701 45.0576 17.3761 45.182 15.4542 45.182C14.368 45.182 13.2907 45.1423 12.2236 45.0641ZM24.4471 44.2537C27.5411 43.6057 30.5212 42.6298 33.3528 41.3623V60H24.4471V44.2537ZM36.6701 39.7074C39.8876 37.9313 42.8757 35.7638 45.5758 33.2658V60H36.6701V39.7074Z" fill="#FF78AF"/>
<path d="M1.36493 37.7078C0.855442 37.5259 0.292463 37.7891 0.106398 38.311L0.0597734 38.4418C-0.127028 38.9657 0.138575 39.5469 0.653461 39.7191C11.2116 43.2507 22.7243 42.639 32.8679 37.983C43.0052 33.33 52.0511 23.6956 56.3046 13.3752C56.5165 12.8611 55.3869 11.5372 54.8801 11.34L45.4826 9.78769C44.8739 9.55085 44.2162 9.98909 44.1463 10.6561C42.4451 26.9039 28.7663 39.5661 12.1439 39.5661C8.36323 39.5661 4.73479 38.9111 1.36493 37.7078Z" fill="#E7286A"/>
<path d="M49.3927 0L60.0001 13.6092H38.7853L49.3927 0Z" fill="#E7286A"/>
</svg>
