<svg width="65" height="66" viewBox="0 0 65 66" fill="none" xmlns="http://www.w3.org/2000/svg">
<path d="M32.5001 15.3306H34.5001V13.3306H32.5001V15.3306ZM32.5001 15.3307H30.5001V17.3307L32.5001 17.3307L32.5001 15.3307ZM42.7593 44.0504L41.279 42.7055L42.7593 44.0504ZM38.7839 53.3592V55.3592H40.7839V53.3592H38.7839ZM32.5 53.3592H30.5V55.3592H32.5V53.3592ZM32.5 53.3592H34.5V51.3592H32.5V53.3592ZM26.2162 53.3592H24.2162V55.3592H26.2162V53.3592ZM22.2409 44.0504L23.7212 42.7055H23.7212L22.2409 44.0504ZM32.5001 13.3306C27.5293 13.3306 22.9048 14.9333 19.5016 18.0588C16.0755 21.2053 14.0305 25.7661 14.0305 31.3718H18.0305C18.0305 26.7924 19.6725 23.3327 22.2072 21.0049C24.7648 18.656 28.3751 17.3306 32.5001 17.3306V13.3306ZM34.5001 15.3307V15.3306H30.5001V15.3307H34.5001ZM32.5001 17.3307C36.6252 17.3307 40.2354 18.6561 42.793 21.0049C45.3277 23.3328 46.9696 26.7925 46.9696 31.3719H50.9696C50.9696 25.7662 48.9247 21.2053 45.4987 18.0589C42.0955 14.9334 37.471 13.3307 32.5002 13.3307L32.5001 17.3307ZM46.9696 31.3719C46.9696 36.3565 44.1725 39.5206 41.279 42.7055L44.2396 45.3953C47.0625 42.2882 50.9696 38.073 50.9696 31.3719H46.9696ZM41.279 42.7055C40.2448 43.8439 39.1366 45.0567 38.3068 46.3116C37.4612 47.5905 36.7839 49.0852 36.7839 50.8242H40.7839C40.7839 50.165 41.0323 49.4419 41.6434 48.5179C42.2702 47.5699 43.1498 46.5949 44.2396 45.3953L41.279 42.7055ZM36.7839 50.8242V53.3592H40.7839V50.8242H36.7839ZM38.7839 51.3592H32.5V55.3592H38.7839V51.3592ZM34.5 53.3592V53.3592H30.5V53.3592H34.5ZM26.2162 55.3592H32.5V51.3592H26.2162V55.3592ZM24.2162 50.8241V53.3592H28.2162V50.8241H24.2162ZM20.7606 45.3952C21.8504 46.5948 22.7299 47.5698 23.3568 48.5178C23.9678 49.4419 24.2162 50.165 24.2162 50.8241H28.2162C28.2162 49.0852 27.539 47.5904 26.6933 46.3116C25.8635 45.0567 24.7554 43.8439 23.7212 42.7055L20.7606 45.3952ZM14.0305 31.3718C14.0305 38.073 17.9377 42.2881 20.7606 45.3952L23.7212 42.7055C20.8276 39.5206 18.0305 36.3565 18.0305 31.3718H14.0305Z" fill="#E7286A"/>
<path d="M28.1734 64.8676L25.9421 62.4408C24.6179 62.4408 25.8231 60.4906 27.1473 60.4906H37.814C39.1382 60.4906 40.3433 62.4408 39.0191 62.4408L36.7878 64.8676C36.5678 65.2431 35.8977 65.4999 35.1381 65.4999H29.8231C29.0635 65.4999 28.3935 65.2431 28.1734 64.8676Z" fill="#E7286A"/>
<rect x="25.3996" y="57.0492" width="14.1619" height="1.30012" stroke="#E7286A" stroke-width="1.30012"/>
<path fill-rule="evenodd" clip-rule="evenodd" d="M18.6956 28.1461C18.2067 29.9001 20.002 29.1296 20.6398 27.4138C21.7525 24.4205 24.1817 21.7239 27.3877 20.3176C28.6922 19.7454 29.0981 18.1152 27.7516 18.4798C27.5909 18.5233 27.4267 18.5791 27.2592 18.6479C25.2349 19.4795 23.373 20.799 21.8671 22.4693C20.3611 24.1396 19.266 26.0998 18.6956 28.1461Z" fill="#FF9FC6"/>
<path d="M31.3199 2.63977C31.3199 2.46432 31.3665 2.29203 31.455 2.14054C31.9015 1.3763 32.9908 1.33475 33.4942 2.06276L33.527 2.11014C33.6448 2.28057 33.708 2.48286 33.708 2.69007V10.4575C33.708 11.117 33.1734 11.6516 32.5139 11.6516C31.8545 11.6516 31.3199 11.117 31.3199 10.4575V2.63977Z" fill="#FF9FC6"/>
<path d="M59.9247 30.5822C60.0403 30.5822 60.1552 30.5989 60.266 30.6317C61.6644 31.0469 61.6644 33.0273 60.266 33.4424C60.1552 33.4753 60.0403 33.492 59.9247 33.492L53.938 33.492C53.1345 33.492 52.4831 32.8406 52.4831 32.0371C52.4831 31.2335 53.1345 30.5822 53.938 30.5822L59.9247 30.5822Z" fill="#FF9FC6"/>
<path d="M52.5695 10.7582C52.6249 10.6908 52.6867 10.6316 52.7536 10.582C53.8278 9.78596 55.0561 11.2826 54.4028 12.5915C54.3621 12.673 54.3135 12.7483 54.2582 12.8158L49.8006 18.2472C49.3343 18.8153 48.5783 18.8153 48.112 18.2472C47.6457 17.679 47.6457 16.7578 48.112 16.1896L52.5695 10.7582Z" fill="#FF9FC6"/>
<path d="M52.5695 51.107C52.6249 51.1745 52.6867 51.2337 52.7536 51.2833C53.8278 52.0793 55.0561 50.5827 54.4028 49.2738C54.3621 49.1923 54.3135 49.117 54.2582 49.0495L49.8006 43.6181C49.3343 43.0499 48.5783 43.0499 48.112 43.6181C47.6457 44.1863 47.6457 45.1075 48.112 45.6757L52.5695 51.107Z" fill="#FF9FC6"/>
<path d="M12.4292 51.107C12.3738 51.1745 12.312 51.2337 12.2451 51.2833C11.1709 52.0793 9.94257 50.5827 10.5959 49.2738C10.6366 49.1923 10.6851 49.117 10.7405 49.0495L15.198 43.6181C15.6643 43.0499 16.4204 43.0499 16.8867 43.6181C17.353 44.1863 17.353 45.1075 16.8867 45.6757L12.4292 51.107Z" fill="#FF9FC6"/>
<path d="M12.4292 10.7582C12.3738 10.6908 12.312 10.6316 12.2451 10.582C11.1709 9.78596 9.94257 11.2826 10.5959 12.5915C10.6366 12.673 10.6851 12.7483 10.7405 12.8158L15.198 18.2472C15.6643 18.8153 16.4204 18.8153 16.8867 18.2472C17.353 17.679 17.353 16.7578 16.8867 16.1896L12.4292 10.7582Z" fill="#FF9FC6"/>
<path d="M5.07532 31.4517C4.95974 31.4517 4.84478 31.4684 4.73399 31.5013C3.33565 31.9164 3.33565 33.8968 4.73399 34.312C4.84478 34.3448 4.95974 34.3615 5.07532 34.3615L11.062 34.3615C11.8655 34.3615 12.5169 33.7102 12.5169 32.9066C12.5169 32.1031 11.8655 31.4517 11.062 31.4517L5.07532 31.4517Z" fill="#FF9FC6"/>
</svg>
