<svg width="75" height="75" viewBox="0 0 75 75" fill="none" xmlns="http://www.w3.org/2000/svg">
<path d="M37.5002 17.1123H39.5002V15.1123H37.5002V17.1123ZM37.5002 17.1123H35.5002V19.1123L37.5002 19.1123L37.5002 17.1123ZM49.3377 50.2505L50.818 51.5953L49.3377 50.2505ZM44.7507 60.9914V62.9914H46.7507V60.9914H44.7507ZM37.5 60.9914H35.5V62.9914H37.5V60.9914ZM37.5 60.9913H39.5V58.9913H37.5V60.9913ZM30.2495 60.9913H28.2495V62.9913H30.2495V60.9913ZM25.6625 50.2504L24.1822 51.5953L25.6625 50.2504ZM37.5002 15.1123C31.8297 15.1123 26.5717 16.9402 22.7099 20.4868C18.8253 24.0543 16.4968 29.2322 16.4968 35.6213H20.4968C20.4968 30.2585 22.4223 26.1818 25.4156 23.4329C28.4317 20.6629 32.6754 19.1123 37.5002 19.1123V15.1123ZM39.5002 17.1123V17.1123H35.5002V17.1123H39.5002ZM37.5002 19.1123C42.3249 19.1123 46.5686 20.663 49.5847 23.4329C52.5779 26.1819 54.5034 30.2586 54.5034 35.6214H58.5034C58.5034 29.2323 56.1749 24.0544 52.2903 20.4868C48.4286 16.9403 43.1707 15.1123 37.5002 15.1123L37.5002 19.1123ZM54.5034 35.6214C54.5034 41.5049 51.1906 45.2367 47.8574 48.9056L50.818 51.5953C54.0806 48.0042 58.5034 43.2214 58.5034 35.6214H54.5034ZM47.8574 48.9056C46.6597 50.2238 45.3987 51.6049 44.4569 53.0292C43.4992 54.4776 42.7507 56.1429 42.7507 58.0663H46.7507C46.7507 57.2227 47.0703 56.329 47.7934 55.2355C48.5323 54.1181 49.5648 52.9748 50.818 51.5953L47.8574 48.9056ZM42.7507 58.0663V60.9914H46.7507V58.0663H42.7507ZM44.7507 58.9914H37.5V62.9914H44.7507V58.9914ZM39.5 60.9914V60.9913H35.5V60.9914H39.5ZM30.2495 62.9913H37.5V58.9913H30.2495V62.9913ZM28.2495 58.0663V60.9913H32.2495V58.0663H28.2495ZM24.1822 51.5953C25.4354 52.9747 26.4679 54.1181 27.2068 55.2355C27.9299 56.329 28.2495 57.2227 28.2495 58.0663H32.2495C32.2495 56.1429 31.501 54.4775 30.5433 53.0292C29.6015 51.6049 28.3405 50.2238 27.1428 48.9056L24.1822 51.5953ZM16.4968 35.6213C16.4968 43.2214 20.9196 48.0042 24.1822 51.5953L27.1428 48.9056C23.8096 45.2367 20.4968 41.5049 20.4968 35.6213H16.4968Z" fill="#E7286A"/>
<path d="M32.5078 74.2704L29.9332 71.4702C28.4053 71.4702 29.7958 69.22 31.3238 69.22H43.6315C45.1594 69.22 46.55 71.4702 45.0221 71.4702L42.4474 74.2704C42.1936 74.7036 41.4204 74.9999 40.5439 74.9999H34.4113C33.5348 74.9999 32.7617 74.7036 32.5078 74.2704Z" fill="#E7286A"/>
<rect x="29.3073" y="65.249" width="16.3407" height="1.50014" stroke="#E7286A" stroke-width="1.50014"/>
<path fill-rule="evenodd" clip-rule="evenodd" d="M21.5719 31.8993C21.0078 33.9232 23.0793 33.0341 23.8151 31.0544C25.099 27.6005 27.902 24.4891 31.6012 22.8665C33.1064 22.2062 33.5747 20.3252 32.0211 20.7459C31.8357 20.7961 31.6463 20.8605 31.453 20.9399C29.1172 21.8994 26.9689 23.4219 25.2313 25.3492C23.4936 27.2765 22.2301 29.5382 21.5719 31.8993Z" fill="#FF9FC6"/>
<path d="M36.1383 2.46897C36.1383 2.26653 36.1921 2.06773 36.2943 1.89293C36.8095 1.01111 38.0663 0.963175 38.6472 1.80319L38.685 1.85785C38.821 2.0545 38.8938 2.28792 38.8938 2.52701V11.4894C38.8938 12.2503 38.277 12.8672 37.5161 12.8672C36.7551 12.8672 36.1383 12.2503 36.1383 11.4894V2.46897Z" fill="#FF9FC6"/>
<path d="M69.1439 34.7102C69.2772 34.7102 69.4099 34.7294 69.5377 34.7674C71.1512 35.2464 71.1512 37.5315 69.5377 38.0104C69.4099 38.0484 69.2772 38.0677 69.1439 38.0677L62.2362 38.0677C61.309 38.0677 60.5574 37.3161 60.5574 36.3889C60.5574 35.4618 61.309 34.7102 62.2362 34.7102L69.1439 34.7102Z" fill="#FF9FC6"/>
<path d="M60.6571 11.8364C60.721 11.7586 60.7924 11.6903 60.8696 11.6331C62.109 10.7146 63.5263 12.4415 62.7724 13.9517C62.7255 14.0458 62.6695 14.1327 62.6056 14.2105L57.4623 20.4775C56.9242 21.1331 56.0519 21.1331 55.5138 20.4775C54.9758 19.8219 54.9758 18.759 55.5138 18.1034L60.6571 11.8364Z" fill="#FF9FC6"/>
<path d="M60.6571 58.3927C60.721 58.4706 60.7924 58.5388 60.8696 58.5961C62.109 59.5146 63.5263 57.7877 62.7724 56.2774C62.7255 56.1834 62.6695 56.0965 62.6056 56.0186L57.4623 49.7516C56.9242 49.096 56.0519 49.0961 55.5138 49.7516C54.9758 50.4072 54.9758 51.4702 55.5138 52.1257L60.6571 58.3927Z" fill="#FF9FC6"/>
<path d="M14.3413 58.3927C14.2774 58.4706 14.2061 58.5388 14.1289 58.5961C12.8895 59.5146 11.4722 57.7877 12.226 56.2774C12.273 56.1834 12.329 56.0965 12.3929 56.0186L17.5362 49.7516C18.0742 49.096 18.9466 49.0961 19.4846 49.7516C20.0227 50.4072 20.0227 51.4702 19.4846 52.1257L14.3413 58.3927Z" fill="#FF9FC6"/>
<path d="M14.3413 11.8364C14.2774 11.7586 14.2061 11.6903 14.1289 11.6331C12.8895 10.7146 11.4722 12.4415 12.226 13.9517C12.273 14.0458 12.329 14.1327 12.3929 14.2105L17.5362 20.4775C18.0742 21.1331 18.9466 21.1331 19.4846 20.4775C20.0227 19.8219 20.0227 18.759 19.4846 18.1034L14.3413 11.8364Z" fill="#FF9FC6"/>
<path d="M5.85613 35.7135C5.72278 35.7135 5.59013 35.7328 5.46229 35.7708C3.84883 36.2497 3.84883 38.5348 5.46229 39.0138C5.59013 39.0517 5.72278 39.071 5.85613 39.071L12.7638 39.071C13.691 39.071 14.4426 38.3194 14.4426 37.3923C14.4426 36.4651 13.691 35.7135 12.7638 35.7135L5.85613 35.7135Z" fill="#FF9FC6"/>
</svg>
