<svg width="169" height="30" viewBox="0 0 169 30" fill="none" xmlns="http://www.w3.org/2000/svg">
<path d="M4.6805 4.904V11.1195H12.5235V14.328H4.6805V20.6675H14.6315V24H0.4955V1.587H14.6315V4.904H4.6805ZM27.1591 12.158C26.7251 11.631 26.2498 11.259 25.7331 11.042C25.2268 10.825 24.6791 10.7165 24.0901 10.7165C23.5115 10.7165 22.9896 10.825 22.5246 11.042C22.0596 11.259 21.6618 11.5897 21.3311 12.034C21.0005 12.468 20.7473 13.026 20.5716 13.708C20.396 14.3797 20.3081 15.1753 20.3081 16.095C20.3081 17.025 20.3805 17.8155 20.5251 18.4665C20.6801 19.1072 20.8971 19.6342 21.1761 20.0475C21.4551 20.4505 21.7961 20.745 22.1991 20.931C22.6021 21.1067 23.0516 21.1945 23.5476 21.1945C24.3433 21.1945 25.0201 21.0292 25.5781 20.6985C26.1361 20.3678 26.6631 19.8977 27.1591 19.288V12.158ZM30.9876 0.966999V24H28.6471C28.1408 24 27.8205 23.7675 27.6861 23.3025L27.3606 21.768C26.72 22.5017 25.9811 23.0958 25.1441 23.5505C24.3175 24.0052 23.3513 24.2325 22.2456 24.2325C21.3776 24.2325 20.582 24.0517 19.8586 23.69C19.1353 23.3283 18.5101 22.8065 17.9831 22.1245C17.4665 21.4322 17.0635 20.5797 16.7741 19.567C16.4951 18.5543 16.3556 17.397 16.3556 16.095C16.3556 14.917 16.5158 13.8217 16.8361 12.809C17.1565 11.7963 17.6163 10.918 18.2156 10.174C18.815 9.43 19.5331 8.85133 20.3701 8.438C21.2071 8.01433 22.1475 7.8025 23.1911 7.8025C24.0798 7.8025 24.8393 7.942 25.4696 8.221C26.1 8.5 26.6631 8.87717 27.1591 9.3525V0.966999H30.9876ZM48.468 8.097V24H46.1275C45.6212 24 45.3008 23.7675 45.1665 23.3025L44.903 22.0315C44.252 22.6928 43.5338 23.2302 42.7485 23.6435C41.9632 24.0465 41.0383 24.248 39.974 24.248C39.106 24.248 38.3362 24.1033 37.6645 23.814C37.0032 23.5143 36.4452 23.0958 35.9905 22.5585C35.5358 22.0212 35.1897 21.3857 34.952 20.652C34.7247 19.908 34.611 19.0917 34.611 18.203V8.097H38.4395V18.203C38.4395 19.1743 38.6617 19.9287 39.106 20.466C39.5607 20.993 40.2375 21.2565 41.1365 21.2565C41.7978 21.2565 42.4178 21.1118 42.9965 20.8225C43.5752 20.5228 44.1228 20.1147 44.6395 19.598V8.097H48.468ZM59.9114 12.8555C60.676 12.8555 61.3425 12.7625 61.9109 12.5765C62.4792 12.3802 62.9494 12.1063 63.3214 11.755C63.7037 11.3933 63.9879 10.9593 64.1739 10.453C64.3599 9.93633 64.4529 9.36283 64.4529 8.7325C64.4529 8.13317 64.3599 7.59067 64.1739 7.105C63.9879 6.61933 63.7089 6.206 63.3369 5.865C62.9649 5.524 62.4947 5.26567 61.9264 5.09C61.358 4.904 60.6864 4.811 59.9114 4.811H56.7959V12.8555H59.9114ZM59.9114 1.587C61.4097 1.587 62.7065 1.76267 63.8019 2.114C64.8972 2.46533 65.8014 2.95617 66.5144 3.5865C67.2274 4.21683 67.7544 4.97117 68.0954 5.8495C68.4467 6.72783 68.6224 7.68883 68.6224 8.7325C68.6224 9.8175 68.4415 10.8147 68.0799 11.724C67.7182 12.623 67.1757 13.398 66.4524 14.049C65.729 14.7 64.8197 15.2063 63.7244 15.568C62.6394 15.9297 61.3684 16.1105 59.9114 16.1105H56.7959V24H52.6264V1.587H59.9114ZM77.5257 7.849C78.7037 7.849 79.7732 8.04017 80.7342 8.4225C81.7055 8.80483 82.5322 9.34733 83.2142 10.05C83.9065 10.7527 84.4387 11.6103 84.8107 12.623C85.1827 13.6357 85.3687 14.7672 85.3687 16.0175C85.3687 17.2782 85.1827 18.4148 84.8107 19.4275C84.4387 20.4402 83.9065 21.303 83.2142 22.016C82.5322 22.729 81.7055 23.2767 80.7342 23.659C79.7732 24.0413 78.7037 24.2325 77.5257 24.2325C76.3373 24.2325 75.2575 24.0413 74.2862 23.659C73.3148 23.2767 72.483 22.729 71.7907 22.016C71.1087 21.303 70.5765 20.4402 70.1942 19.4275C69.8222 18.4148 69.6362 17.2782 69.6362 16.0175C69.6362 14.7672 69.8222 13.6357 70.1942 12.623C70.5765 11.6103 71.1087 10.7527 71.7907 10.05C72.483 9.34733 73.3148 8.80483 74.2862 8.4225C75.2575 8.04017 76.3373 7.849 77.5257 7.849ZM77.5257 21.2875C78.8483 21.2875 79.8248 20.8432 80.4552 19.9545C81.0958 19.0658 81.4162 17.7638 81.4162 16.0485C81.4162 14.3332 81.0958 13.026 80.4552 12.127C79.8248 11.228 78.8483 10.7785 77.5257 10.7785C76.1823 10.7785 75.1852 11.2332 74.5342 12.1425C73.8935 13.0415 73.5732 14.3435 73.5732 16.0485C73.5732 17.7535 73.8935 19.0555 74.5342 19.9545C75.1852 20.8432 76.1823 21.2875 77.5257 21.2875ZM92.1179 19.877C92.5519 20.404 93.0221 20.776 93.5284 20.993C94.0451 21.21 94.6031 21.3185 95.2024 21.3185C95.7811 21.3185 96.3029 21.21 96.7679 20.993C97.2329 20.776 97.6256 20.4453 97.9459 20.001C98.2766 19.5567 98.5298 18.9987 98.7054 18.327C98.8811 17.645 98.9689 16.8442 98.9689 15.9245C98.9689 14.9945 98.8914 14.2092 98.7364 13.5685C98.5918 12.9175 98.3799 12.3905 98.1009 11.9875C97.8219 11.5845 97.4809 11.29 97.0779 11.104C96.6853 10.918 96.2358 10.825 95.7294 10.825C94.9338 10.825 94.2569 10.9955 93.6989 11.3365C93.1409 11.6672 92.6139 12.1373 92.1179 12.747V19.877ZM91.9164 10.267C92.5674 9.53333 93.3063 8.93917 94.1329 8.4845C94.9596 8.02983 95.9309 7.8025 97.0469 7.8025C97.9149 7.8025 98.7054 7.98333 99.4184 8.345C100.142 8.70667 100.762 9.23367 101.278 9.926C101.805 10.608 102.208 11.4553 102.487 12.468C102.777 13.4703 102.921 14.6225 102.921 15.9245C102.921 17.1128 102.761 18.2133 102.441 19.226C102.121 20.2387 101.661 21.117 101.061 21.861C100.472 22.605 99.7543 23.1888 98.9069 23.6125C98.0699 24.0258 97.1296 24.2325 96.0859 24.2325C95.1973 24.2325 94.4378 24.0982 93.8074 23.8295C93.1771 23.5505 92.6139 23.1682 92.1179 22.6825V29.1925H88.2894V8.097H90.6299C91.1259 8.097 91.4514 8.3295 91.6064 8.7945L91.9164 10.267ZM110.228 10.98H111.205C111.598 10.98 111.923 10.9283 112.181 10.825C112.44 10.7113 112.662 10.5357 112.848 10.298L119.032 2.4705C119.291 2.13983 119.559 1.9125 119.838 1.7885C120.128 1.65417 120.489 1.587 120.923 1.587H124.519L116.971 10.9025C116.527 11.4708 116.067 11.8738 115.591 12.1115C115.932 12.2355 116.237 12.4112 116.506 12.6385C116.785 12.8555 117.048 13.1448 117.296 13.5065L125.077 24H121.404C120.908 24 120.536 23.9328 120.288 23.7985C120.05 23.6538 119.849 23.4472 119.683 23.1785L113.344 14.9015C113.148 14.6225 112.92 14.4262 112.662 14.3125C112.404 14.1988 112.032 14.142 111.546 14.142H110.228V24H106.059V1.587H110.228V10.98ZM132.593 7.849C133.771 7.849 134.841 8.04017 135.802 8.4225C136.773 8.80483 137.6 9.34733 138.282 10.05C138.974 10.7527 139.506 11.6103 139.878 12.623C140.25 13.6357 140.436 14.7672 140.436 16.0175C140.436 17.2782 140.25 18.4148 139.878 19.4275C139.506 20.4402 138.974 21.303 138.282 22.016C137.6 22.729 136.773 23.2767 135.802 23.659C134.841 24.0413 133.771 24.2325 132.593 24.2325C131.405 24.2325 130.325 24.0413 129.354 23.659C128.382 23.2767 127.55 22.729 126.858 22.016C126.176 21.303 125.644 20.4402 125.262 19.4275C124.89 18.4148 124.704 17.2782 124.704 16.0175C124.704 14.7672 124.89 13.6357 125.262 12.623C125.644 11.6103 126.176 10.7527 126.858 10.05C127.55 9.34733 128.382 8.80483 129.354 8.4225C130.325 8.04017 131.405 7.849 132.593 7.849ZM132.593 21.2875C133.916 21.2875 134.892 20.8432 135.523 19.9545C136.163 19.0658 136.484 17.7638 136.484 16.0485C136.484 14.3332 136.163 13.026 135.523 12.127C134.892 11.228 133.916 10.7785 132.593 10.7785C131.25 10.7785 130.253 11.2332 129.602 12.1425C128.961 13.0415 128.641 14.3435 128.641 16.0485C128.641 17.7535 128.961 19.0555 129.602 19.9545C130.253 20.8432 131.25 21.2875 132.593 21.2875ZM146.968 10.856C147.464 9.90533 148.053 9.16133 148.735 8.624C149.417 8.07633 150.223 7.8025 151.153 7.8025C151.887 7.8025 152.476 7.96267 152.92 8.283L152.672 11.1505C152.621 11.3365 152.543 11.4708 152.44 11.5535C152.347 11.6258 152.218 11.662 152.052 11.662C151.897 11.662 151.665 11.6362 151.355 11.5845C151.055 11.5328 150.761 11.507 150.471 11.507C150.048 11.507 149.67 11.569 149.34 11.693C149.009 11.817 148.709 11.9978 148.441 12.2355C148.182 12.4628 147.95 12.7418 147.743 13.0725C147.547 13.4032 147.361 13.7803 147.185 14.204V24H143.357V8.097H145.604C145.997 8.097 146.271 8.16933 146.426 8.314C146.581 8.44833 146.684 8.69633 146.736 9.058L146.968 10.856ZM158.502 10.05C158.822 9.72967 159.158 9.43517 159.509 9.1665C159.871 8.8875 160.248 8.655 160.641 8.469C161.044 8.27267 161.473 8.12283 161.927 8.0195C162.382 7.90583 162.878 7.849 163.415 7.849C164.283 7.849 165.053 7.99883 165.725 8.2985C166.396 8.58783 166.954 9.00117 167.399 9.5385C167.853 10.0655 168.194 10.701 168.422 11.445C168.659 12.1787 168.778 12.9898 168.778 13.8785V24H164.95V13.8785C164.95 12.9072 164.728 12.158 164.283 11.631C163.839 11.0937 163.162 10.825 162.253 10.825C161.591 10.825 160.971 10.9748 160.393 11.2745C159.814 11.5742 159.266 11.9823 158.75 12.499V24H154.921V8.097H157.262C157.758 8.097 158.083 8.3295 158.238 8.7945L158.502 10.05Z" fill="#E7286A"/>
</svg>
