<svg xmlns="http://www.w3.org/2000/svg" width="128" height="128" viewBox="0 0 128 128"><defs><style>.a{fill:#e7286a;}.b{fill:#ff9fc6;}.c{fill:#fff;}</style></defs><rect class="a" width="128" height="128" rx="8"/><path class="b" d="M83.546,20h20.8a4,4,0,0,1,2.829,6.828L26.828,107.172A4,4,0,0,1,20,104.343V82L80.715,21.174A4,4,0,0,1,83.546,20Z"/><path class="b" d="M21.167,64.926,31.89,54.2a4,4,0,0,1,5.657,0l5.7,5.7a4,4,0,0,1,0,5.657L20.007,88.8a.01.01,0,0,1-.016-.007L20,67.754A4,4,0,0,1,21.167,64.926Z"/><path class="b" d="M66.821,83.179l8.351-8.351a4,4,0,0,1,5.656,0l26.344,26.344A4,4,0,0,1,104.343,108H87.55a4,4,0,0,1-2.836-1.179l-17.9-17.993A4,4,0,0,1,66.821,83.179Z"/><path class="c" d="M20,23.657V40.451a4,4,0,0,0,1.178,2.835L40.646,62.662a4,4,0,0,1-.005,5.675L21.183,87.646A4,4,0,0,0,20,90.485v13.858a4,4,0,0,0,6.828,2.829L67.172,66.828a4,4,0,0,0,0-5.656L26.828,20.828A4,4,0,0,0,20,23.657Z"/></svg>