<svg width="65" height="66" viewBox="0 0 65 66" fill="none" xmlns="http://www.w3.org/2000/svg">
<path fill-rule="evenodd" clip-rule="evenodd" d="M39.1069 24.7097C39.0814 24.8024 39.0638 24.8984 39.055 24.9966C38.3188 33.2277 31.2777 39.6834 22.7004 39.6834C20.9307 39.6834 19.2263 39.4086 17.6292 38.9C17.477 38.8512 17.325 38.8 17.1733 38.7465L17.1732 38.7465L17.1729 38.7474C16.4904 38.5079 15.8288 38.2254 15.1915 37.9031C14.5055 37.5562 13.6509 37.7466 13.2372 38.3946C12.8139 39.0577 13.0143 39.944 13.7131 40.3055C14.9009 40.9199 16.1482 41.4095 17.4341 41.768C17.4712 41.7819 17.5094 41.7943 17.5486 41.805C20.3993 42.585 23.4013 42.712 26.3212 42.1677C29.7032 41.5373 32.8515 40.0294 35.4389 37.8007C38.0263 35.572 39.9584 32.7038 41.0343 29.4943C41.9623 26.7264 42.2242 23.7916 41.8083 20.919C41.6976 20.1549 40.9442 19.6809 40.1814 19.8442C39.404 20.0106 38.9149 20.7746 39.0163 21.555C39.151 22.5917 39.1834 23.6479 39.1069 24.7097Z" fill="#FF9FC6"/>
<path fill-rule="evenodd" clip-rule="evenodd" d="M35.325 13.3572C35.8486 13.9262 36.7199 14.0513 37.3403 13.5898C37.977 13.1162 38.1051 12.2084 37.5738 11.6189C37.3387 11.3581 37.0962 11.1036 36.8467 10.8558C36.3 10.3129 35.4169 10.3753 34.9043 10.9506C34.3782 11.5409 34.4436 12.444 34.9959 13.0099C35.1073 13.1241 35.217 13.2398 35.325 13.3572Z" fill="#FF9FC6"/>
<ellipse cx="22.7806" cy="23.5783" rx="20.7806" ry="21.0783" stroke="#E7286A" stroke-width="4"/>
<rect y="-2.84847" width="21.9807" height="9.81162" rx="4.90581" transform="matrix(0.702061 0.712117 -0.702061 0.712117 47.3766 44.737)" stroke="#E7286A" stroke-width="4"/>
<rect width="6.37627" height="4.08404" rx="2.04202" transform="matrix(0.702061 0.712117 -0.702061 0.712117 43.5636 40.9321)" fill="#E7286A"/>
</svg>
