<svg width="240" height="65" viewBox="0 0 240 65" fill="none" xmlns="http://www.w3.org/2000/svg">
<rect x="0.5" y="0.5" width="239" height="64" rx="4.5" fill="#F063B8"/>
<path d="M59.96 38.37V40H51.83V25.67H53.76V38.37H59.96ZM67.7408 33.83C67.7408 33.4167 67.6808 33.04 67.5608 32.7C67.4474 32.3533 67.2774 32.0567 67.0508 31.81C66.8308 31.5567 66.5608 31.3633 66.2408 31.23C65.9208 31.09 65.5574 31.02 65.1508 31.02C64.2974 31.02 63.6208 31.27 63.1208 31.77C62.6274 32.2633 62.3208 32.95 62.2008 33.83H67.7408ZM69.1808 38.58C68.9608 38.8467 68.6974 39.08 68.3908 39.28C68.0841 39.4733 67.7541 39.6333 67.4008 39.76C67.0541 39.8867 66.6941 39.98 66.3208 40.04C65.9474 40.1067 65.5774 40.14 65.2108 40.14C64.5108 40.14 63.8641 40.0233 63.2708 39.79C62.6841 39.55 62.1741 39.2033 61.7408 38.75C61.3141 38.29 60.9808 37.7233 60.7408 37.05C60.5008 36.3767 60.3808 35.6033 60.3808 34.73C60.3808 34.0233 60.4874 33.3633 60.7008 32.75C60.9208 32.1367 61.2341 31.6067 61.6408 31.16C62.0474 30.7067 62.5441 30.3533 63.1308 30.1C63.7174 29.84 64.3774 29.71 65.1108 29.71C65.7174 29.71 66.2774 29.8133 66.7908 30.02C67.3108 30.22 67.7574 30.5133 68.1308 30.9C68.5108 31.28 68.8074 31.7533 69.0208 32.32C69.2341 32.88 69.3408 33.52 69.3408 34.24C69.3408 34.52 69.3108 34.7067 69.2508 34.8C69.1908 34.8933 69.0774 34.94 68.9108 34.94H62.1408C62.1608 35.58 62.2474 36.1367 62.4008 36.61C62.5608 37.0833 62.7808 37.48 63.0608 37.8C63.3408 38.1133 63.6741 38.35 64.0608 38.51C64.4474 38.6633 64.8808 38.74 65.3608 38.74C65.8074 38.74 66.1908 38.69 66.5108 38.59C66.8374 38.4833 67.1174 38.37 67.3508 38.25C67.5841 38.13 67.7774 38.02 67.9308 37.92C68.0908 37.8133 68.2274 37.76 68.3408 37.76C68.4874 37.76 68.6008 37.8167 68.6808 37.93L69.1808 38.58ZM74.5591 40.16C73.7591 40.16 73.1424 39.9367 72.7091 39.49C72.2824 39.0433 72.0691 38.4 72.0691 37.56V31.36H70.8491C70.7424 31.36 70.6524 31.33 70.5791 31.27C70.5057 31.2033 70.4691 31.1033 70.4691 30.97V30.26L72.1291 30.05L72.5391 26.92C72.5591 26.82 72.6024 26.74 72.6691 26.68C72.7424 26.6133 72.8357 26.58 72.9491 26.58H73.8491V30.07H76.7791V31.36H73.8491V37.44C73.8491 37.8667 73.9524 38.1833 74.1591 38.39C74.3657 38.5967 74.6324 38.7 74.9591 38.7C75.1457 38.7 75.3057 38.6767 75.4391 38.63C75.5791 38.5767 75.6991 38.52 75.7991 38.46C75.8991 38.4 75.9824 38.3467 76.0491 38.3C76.1224 38.2467 76.1857 38.22 76.2391 38.22C76.3324 38.22 76.4157 38.2767 76.4891 38.39L77.0091 39.24C76.7024 39.5267 76.3324 39.7533 75.8991 39.92C75.4657 40.08 75.0191 40.16 74.5591 40.16ZM79.847 24.71C80.127 25.1833 80.317 25.6833 80.417 26.21C80.517 26.7367 80.527 27.2567 80.447 27.77C80.367 28.2833 80.2004 28.7767 79.947 29.25C79.6937 29.7233 79.357 30.1433 78.937 30.51L78.397 30.16C78.297 30.1 78.2504 30.0233 78.257 29.93C78.2704 29.83 78.3037 29.75 78.357 29.69C78.5304 29.4767 78.677 29.22 78.797 28.92C78.9237 28.6133 79.0037 28.2867 79.037 27.94C79.077 27.5867 79.0604 27.2233 78.987 26.85C78.9204 26.4767 78.7837 26.1167 78.577 25.77C78.4904 25.63 78.4637 25.5067 78.497 25.4C78.537 25.2867 78.6204 25.2033 78.747 25.15L79.847 24.71ZM88.3452 31.54C88.2652 31.6867 88.1418 31.76 87.9752 31.76C87.8752 31.76 87.7618 31.7233 87.6352 31.65C87.5085 31.5767 87.3518 31.4967 87.1652 31.41C86.9852 31.3167 86.7685 31.2333 86.5152 31.16C86.2618 31.08 85.9618 31.04 85.6152 31.04C85.3152 31.04 85.0452 31.08 84.8052 31.16C84.5652 31.2333 84.3585 31.3367 84.1852 31.47C84.0185 31.6033 83.8885 31.76 83.7952 31.94C83.7085 32.1133 83.6652 32.3033 83.6652 32.51C83.6652 32.77 83.7385 32.9867 83.8852 33.16C84.0385 33.3333 84.2385 33.4833 84.4852 33.61C84.7318 33.7367 85.0118 33.85 85.3252 33.95C85.6385 34.0433 85.9585 34.1467 86.2852 34.26C86.6185 34.3667 86.9418 34.4867 87.2552 34.62C87.5685 34.7533 87.8485 34.92 88.0952 35.12C88.3418 35.32 88.5385 35.5667 88.6852 35.86C88.8385 36.1467 88.9152 36.4933 88.9152 36.9C88.9152 37.3667 88.8318 37.8 88.6652 38.2C88.4985 38.5933 88.2518 38.9367 87.9252 39.23C87.5985 39.5167 87.1985 39.7433 86.7252 39.91C86.2518 40.0767 85.7052 40.16 85.0852 40.16C84.3785 40.16 83.7385 40.0467 83.1652 39.82C82.5918 39.5867 82.1052 39.29 81.7052 38.93L82.1252 38.25C82.1785 38.1633 82.2418 38.0967 82.3152 38.05C82.3885 38.0033 82.4818 37.98 82.5952 37.98C82.7152 37.98 82.8418 38.0267 82.9752 38.12C83.1085 38.2133 83.2685 38.3167 83.4552 38.43C83.6485 38.5433 83.8818 38.6467 84.1552 38.74C84.4285 38.8333 84.7685 38.88 85.1752 38.88C85.5218 38.88 85.8252 38.8367 86.0852 38.75C86.3452 38.6567 86.5618 38.5333 86.7352 38.38C86.9085 38.2267 87.0352 38.05 87.1152 37.85C87.2018 37.65 87.2452 37.4367 87.2452 37.21C87.2452 36.93 87.1685 36.7 87.0152 36.52C86.8685 36.3333 86.6718 36.1767 86.4252 36.05C86.1785 35.9167 85.8952 35.8033 85.5752 35.71C85.2618 35.61 84.9385 35.5067 84.6052 35.4C84.2785 35.2933 83.9552 35.1733 83.6352 35.04C83.3218 34.9 83.0418 34.7267 82.7952 34.52C82.5485 34.3133 82.3485 34.06 82.1952 33.76C82.0485 33.4533 81.9752 33.0833 81.9752 32.65C81.9752 32.2633 82.0552 31.8933 82.2152 31.54C82.3752 31.18 82.6085 30.8667 82.9152 30.6C83.2218 30.3267 83.5985 30.11 84.0452 29.95C84.4918 29.79 85.0018 29.71 85.5752 29.71C86.2418 29.71 86.8385 29.8167 87.3652 30.03C87.8985 30.2367 88.3585 30.5233 88.7452 30.89L88.3452 31.54ZM99.7447 35.05C100.105 35.05 100.421 35 100.695 34.9C100.968 34.8 101.198 34.66 101.385 34.48C101.571 34.3 101.711 34.0867 101.805 33.84C101.898 33.5867 101.945 33.31 101.945 33.01C101.945 32.39 101.755 31.8967 101.375 31.53C101.001 31.1633 100.458 30.98 99.7447 30.98C99.0247 30.98 98.4747 31.1633 98.0947 31.53C97.7214 31.8967 97.5347 32.39 97.5347 33.01C97.5347 33.31 97.5814 33.5867 97.6747 33.84C97.7747 34.0867 97.918 34.3 98.1047 34.48C98.2914 34.66 98.5214 34.8 98.7947 34.9C99.068 35 99.3847 35.05 99.7447 35.05ZM102.955 40.55C102.955 40.3033 102.885 40.1033 102.745 39.95C102.605 39.7967 102.415 39.6767 102.175 39.59C101.941 39.5033 101.668 39.4433 101.355 39.41C101.041 39.37 100.708 39.34 100.355 39.32C100.008 39.3 99.6547 39.28 99.2947 39.26C98.9347 39.24 98.588 39.2067 98.2547 39.16C97.8814 39.3333 97.5747 39.5533 97.3347 39.82C97.1014 40.08 96.9847 40.3867 96.9847 40.74C96.9847 40.9667 97.0414 41.1767 97.1547 41.37C97.2747 41.57 97.4547 41.74 97.6947 41.88C97.9347 42.0267 98.2347 42.14 98.5947 42.22C98.9614 42.3067 99.3914 42.35 99.8847 42.35C100.365 42.35 100.795 42.3067 101.175 42.22C101.555 42.1333 101.875 42.01 102.135 41.85C102.401 41.69 102.605 41.5 102.745 41.28C102.885 41.06 102.955 40.8167 102.955 40.55ZM104.765 30.27V30.93C104.765 31.15 104.625 31.29 104.345 31.35L103.195 31.5C103.421 31.94 103.535 32.4267 103.535 32.96C103.535 33.4533 103.438 33.9033 103.245 34.31C103.058 34.71 102.798 35.0533 102.465 35.34C102.131 35.6267 101.731 35.8467 101.265 36C100.798 36.1533 100.291 36.23 99.7447 36.23C99.2714 36.23 98.8247 36.1733 98.4047 36.06C98.1914 36.1933 98.028 36.3367 97.9147 36.49C97.8014 36.6367 97.7447 36.7867 97.7447 36.94C97.7447 37.18 97.8414 37.3633 98.0347 37.49C98.2347 37.61 98.4947 37.6967 98.8147 37.75C99.1347 37.8033 99.498 37.8367 99.9047 37.85C100.318 37.8633 100.738 37.8867 101.165 37.92C101.598 37.9467 102.018 37.9967 102.425 38.07C102.838 38.1433 103.205 38.2633 103.525 38.43C103.845 38.5967 104.101 38.8267 104.295 39.12C104.495 39.4133 104.595 39.7933 104.595 40.26C104.595 40.6933 104.485 41.1133 104.265 41.52C104.051 41.9267 103.741 42.2867 103.335 42.6C102.928 42.92 102.428 43.1733 101.835 43.36C101.248 43.5533 100.585 43.65 99.8447 43.65C99.1047 43.65 98.458 43.5767 97.9047 43.43C97.3514 43.2833 96.8914 43.0867 96.5247 42.84C96.158 42.5933 95.8814 42.3067 95.6947 41.98C95.5147 41.66 95.4247 41.3233 95.4247 40.97C95.4247 40.47 95.5814 40.0467 95.8947 39.7C96.208 39.3533 96.638 39.0767 97.1847 38.87C96.8847 38.7367 96.6447 38.56 96.4647 38.34C96.2914 38.1133 96.2047 37.81 96.2047 37.43C96.2047 37.2833 96.2314 37.1333 96.2847 36.98C96.338 36.82 96.418 36.6633 96.5247 36.51C96.638 36.35 96.7747 36.2 96.9347 36.06C97.0947 35.92 97.2814 35.7967 97.4947 35.69C96.9947 35.41 96.6047 35.04 96.3247 34.58C96.0447 34.1133 95.9047 33.5733 95.9047 32.96C95.9047 32.4667 95.998 32.02 96.1847 31.62C96.378 31.2133 96.6447 30.87 96.9847 30.59C97.3247 30.3033 97.728 30.0833 98.1947 29.93C98.668 29.7767 99.1847 29.7 99.7447 29.7C100.185 29.7 100.595 29.75 100.975 29.85C101.355 29.9433 101.701 30.0833 102.015 30.27H104.765ZM113.229 33.83C113.229 33.4167 113.169 33.04 113.049 32.7C112.936 32.3533 112.766 32.0567 112.539 31.81C112.319 31.5567 112.049 31.3633 111.729 31.23C111.409 31.09 111.046 31.02 110.639 31.02C109.786 31.02 109.109 31.27 108.609 31.77C108.116 32.2633 107.809 32.95 107.689 33.83H113.229ZM114.669 38.58C114.449 38.8467 114.186 39.08 113.879 39.28C113.572 39.4733 113.242 39.6333 112.889 39.76C112.542 39.8867 112.182 39.98 111.809 40.04C111.436 40.1067 111.066 40.14 110.699 40.14C109.999 40.14 109.352 40.0233 108.759 39.79C108.172 39.55 107.662 39.2033 107.229 38.75C106.802 38.29 106.469 37.7233 106.229 37.05C105.989 36.3767 105.869 35.6033 105.869 34.73C105.869 34.0233 105.976 33.3633 106.189 32.75C106.409 32.1367 106.722 31.6067 107.129 31.16C107.536 30.7067 108.032 30.3533 108.619 30.1C109.206 29.84 109.866 29.71 110.599 29.71C111.206 29.71 111.766 29.8133 112.279 30.02C112.799 30.22 113.246 30.5133 113.619 30.9C113.999 31.28 114.296 31.7533 114.509 32.32C114.722 32.88 114.829 33.52 114.829 34.24C114.829 34.52 114.799 34.7067 114.739 34.8C114.679 34.8933 114.566 34.94 114.399 34.94H107.629C107.649 35.58 107.736 36.1367 107.889 36.61C108.049 37.0833 108.269 37.48 108.549 37.8C108.829 38.1133 109.162 38.35 109.549 38.51C109.936 38.6633 110.369 38.74 110.849 38.74C111.296 38.74 111.679 38.69 111.999 38.59C112.326 38.4833 112.606 38.37 112.839 38.25C113.072 38.13 113.266 38.02 113.419 37.92C113.579 37.8133 113.716 37.76 113.829 37.76C113.976 37.76 114.089 37.8167 114.169 37.93L114.669 38.58ZM120.047 40.16C119.247 40.16 118.631 39.9367 118.197 39.49C117.771 39.0433 117.557 38.4 117.557 37.56V31.36H116.337C116.231 31.36 116.141 31.33 116.067 31.27C115.994 31.2033 115.957 31.1033 115.957 30.97V30.26L117.617 30.05L118.027 26.92C118.047 26.82 118.091 26.74 118.157 26.68C118.231 26.6133 118.324 26.58 118.437 26.58H119.337V30.07H122.267V31.36H119.337V37.44C119.337 37.8667 119.441 38.1833 119.647 38.39C119.854 38.5967 120.121 38.7 120.447 38.7C120.634 38.7 120.794 38.6767 120.927 38.63C121.067 38.5767 121.187 38.52 121.287 38.46C121.387 38.4 121.471 38.3467 121.537 38.3C121.611 38.2467 121.674 38.22 121.727 38.22C121.821 38.22 121.904 38.2767 121.977 38.39L122.497 39.24C122.191 39.5267 121.821 39.7533 121.387 39.92C120.954 40.08 120.507 40.16 120.047 40.16ZM135.123 31.54C135.043 31.6867 134.919 31.76 134.753 31.76C134.653 31.76 134.539 31.7233 134.413 31.65C134.286 31.5767 134.129 31.4967 133.943 31.41C133.763 31.3167 133.546 31.2333 133.293 31.16C133.039 31.08 132.739 31.04 132.393 31.04C132.093 31.04 131.823 31.08 131.583 31.16C131.343 31.2333 131.136 31.3367 130.963 31.47C130.796 31.6033 130.666 31.76 130.573 31.94C130.486 32.1133 130.443 32.3033 130.443 32.51C130.443 32.77 130.516 32.9867 130.663 33.16C130.816 33.3333 131.016 33.4833 131.263 33.61C131.509 33.7367 131.789 33.85 132.103 33.95C132.416 34.0433 132.736 34.1467 133.063 34.26C133.396 34.3667 133.719 34.4867 134.033 34.62C134.346 34.7533 134.626 34.92 134.873 35.12C135.119 35.32 135.316 35.5667 135.463 35.86C135.616 36.1467 135.693 36.4933 135.693 36.9C135.693 37.3667 135.609 37.8 135.443 38.2C135.276 38.5933 135.029 38.9367 134.703 39.23C134.376 39.5167 133.976 39.7433 133.503 39.91C133.029 40.0767 132.483 40.16 131.863 40.16C131.156 40.16 130.516 40.0467 129.943 39.82C129.369 39.5867 128.883 39.29 128.483 38.93L128.903 38.25C128.956 38.1633 129.019 38.0967 129.093 38.05C129.166 38.0033 129.259 37.98 129.373 37.98C129.493 37.98 129.619 38.0267 129.753 38.12C129.886 38.2133 130.046 38.3167 130.233 38.43C130.426 38.5433 130.659 38.6467 130.933 38.74C131.206 38.8333 131.546 38.88 131.953 38.88C132.299 38.88 132.603 38.8367 132.862 38.75C133.123 38.6567 133.339 38.5333 133.513 38.38C133.686 38.2267 133.813 38.05 133.893 37.85C133.979 37.65 134.023 37.4367 134.023 37.21C134.023 36.93 133.946 36.7 133.793 36.52C133.646 36.3333 133.449 36.1767 133.203 36.05C132.956 35.9167 132.673 35.8033 132.353 35.71C132.039 35.61 131.716 35.5067 131.383 35.4C131.056 35.2933 130.733 35.1733 130.413 35.04C130.099 34.9 129.819 34.7267 129.573 34.52C129.326 34.3133 129.126 34.06 128.973 33.76C128.826 33.4533 128.753 33.0833 128.753 32.65C128.753 32.2633 128.833 31.8933 128.993 31.54C129.153 31.18 129.386 30.8667 129.693 30.6C129.999 30.3267 130.376 30.11 130.823 29.95C131.269 29.79 131.779 29.71 132.353 29.71C133.019 29.71 133.616 29.8167 134.143 30.03C134.676 30.2367 135.136 30.5233 135.523 30.89L135.123 31.54ZM140.985 40.16C140.185 40.16 139.568 39.9367 139.135 39.49C138.708 39.0433 138.495 38.4 138.495 37.56V31.36H137.275C137.168 31.36 137.078 31.33 137.005 31.27C136.932 31.2033 136.895 31.1033 136.895 30.97V30.26L138.555 30.05L138.965 26.92C138.985 26.82 139.028 26.74 139.095 26.68C139.168 26.6133 139.262 26.58 139.375 26.58H140.275V30.07H143.205V31.36H140.275V37.44C140.275 37.8667 140.378 38.1833 140.585 38.39C140.792 38.5967 141.058 38.7 141.385 38.7C141.572 38.7 141.732 38.6767 141.865 38.63C142.005 38.5767 142.125 38.52 142.225 38.46C142.325 38.4 142.408 38.3467 142.475 38.3C142.548 38.2467 142.612 38.22 142.665 38.22C142.758 38.22 142.842 38.2767 142.915 38.39L143.435 39.24C143.128 39.5267 142.758 39.7533 142.325 39.92C141.892 40.08 141.445 40.16 140.985 40.16ZM150.533 35.44C149.713 35.4667 149.013 35.5333 148.433 35.64C147.859 35.74 147.389 35.8733 147.023 36.04C146.663 36.2067 146.399 36.4033 146.233 36.63C146.073 36.8567 145.993 37.11 145.993 37.39C145.993 37.6567 146.036 37.8867 146.123 38.08C146.209 38.2733 146.326 38.4333 146.473 38.56C146.626 38.68 146.803 38.77 147.003 38.83C147.209 38.8833 147.429 38.91 147.663 38.91C147.976 38.91 148.263 38.88 148.523 38.82C148.783 38.7533 149.026 38.66 149.253 38.54C149.486 38.42 149.706 38.2767 149.913 38.11C150.126 37.9433 150.333 37.7533 150.533 37.54V35.44ZM144.783 31.3C145.343 30.76 145.946 30.3567 146.593 30.09C147.239 29.8233 147.956 29.69 148.743 29.69C149.309 29.69 149.813 29.7833 150.253 29.97C150.693 30.1567 151.063 30.4167 151.363 30.75C151.663 31.0833 151.889 31.4867 152.043 31.96C152.196 32.4333 152.273 32.9533 152.273 33.52V40H151.483C151.309 40 151.176 39.9733 151.083 39.92C150.989 39.86 150.916 39.7467 150.863 39.58L150.663 38.62C150.396 38.8667 150.136 39.0867 149.883 39.28C149.629 39.4667 149.363 39.6267 149.083 39.76C148.803 39.8867 148.503 39.9833 148.183 40.05C147.869 40.1233 147.519 40.16 147.133 40.16C146.739 40.16 146.369 40.1067 146.023 40C145.676 39.8867 145.373 39.72 145.113 39.5C144.859 39.28 144.656 39.0033 144.503 38.67C144.356 38.33 144.283 37.93 144.283 37.47C144.283 37.07 144.393 36.6867 144.613 36.32C144.833 35.9467 145.189 35.6167 145.683 35.33C146.176 35.0433 146.819 34.81 147.613 34.63C148.406 34.4433 149.379 34.3367 150.533 34.31V33.52C150.533 32.7333 150.363 32.14 150.023 31.74C149.683 31.3333 149.186 31.13 148.533 31.13C148.093 31.13 147.723 31.1867 147.423 31.3C147.129 31.4067 146.873 31.53 146.653 31.67C146.439 31.8033 146.253 31.9267 146.093 32.04C145.939 32.1467 145.786 32.2 145.633 32.2C145.513 32.2 145.409 32.17 145.323 32.11C145.236 32.0433 145.163 31.9633 145.103 31.87L144.783 31.3ZM156.674 31.9C156.994 31.2067 157.388 30.6667 157.854 30.28C158.321 29.8867 158.891 29.69 159.564 29.69C159.778 29.69 159.981 29.7133 160.174 29.76C160.374 29.8067 160.551 29.88 160.704 29.98L160.574 31.31C160.534 31.4767 160.434 31.56 160.274 31.56C160.181 31.56 160.044 31.54 159.864 31.5C159.684 31.46 159.481 31.44 159.254 31.44C158.934 31.44 158.648 31.4867 158.394 31.58C158.148 31.6733 157.924 31.8133 157.724 32C157.531 32.18 157.354 32.4067 157.194 32.68C157.041 32.9467 156.901 33.2533 156.774 33.6V40H154.984V29.87H156.004C156.198 29.87 156.331 29.9067 156.404 29.98C156.478 30.0533 156.528 30.18 156.554 30.36L156.674 31.9ZM165.379 40.16C164.579 40.16 163.963 39.9367 163.529 39.49C163.103 39.0433 162.889 38.4 162.889 37.56V31.36H161.669C161.563 31.36 161.473 31.33 161.399 31.27C161.326 31.2033 161.289 31.1033 161.289 30.97V30.26L162.949 30.05L163.359 26.92C163.379 26.82 163.423 26.74 163.489 26.68C163.563 26.6133 163.656 26.58 163.769 26.58H164.669V30.07H167.599V31.36H164.669V37.44C164.669 37.8667 164.773 38.1833 164.979 38.39C165.186 38.5967 165.453 38.7 165.779 38.7C165.966 38.7 166.126 38.6767 166.259 38.63C166.399 38.5767 166.519 38.52 166.619 38.46C166.719 38.4 166.803 38.3467 166.869 38.3C166.943 38.2467 167.006 38.22 167.059 38.22C167.153 38.22 167.236 38.2767 167.309 38.39L167.829 39.24C167.523 39.5267 167.153 39.7533 166.719 39.92C166.286 40.08 165.839 40.16 165.379 40.16ZM176.159 33.83C176.159 33.4167 176.099 33.04 175.979 32.7C175.865 32.3533 175.695 32.0567 175.469 31.81C175.249 31.5567 174.979 31.3633 174.659 31.23C174.339 31.09 173.975 31.02 173.569 31.02C172.715 31.02 172.039 31.27 171.539 31.77C171.045 32.2633 170.739 32.95 170.619 33.83H176.159ZM177.599 38.58C177.379 38.8467 177.115 39.08 176.809 39.28C176.502 39.4733 176.172 39.6333 175.819 39.76C175.472 39.8867 175.112 39.98 174.739 40.04C174.365 40.1067 173.995 40.14 173.629 40.14C172.929 40.14 172.282 40.0233 171.689 39.79C171.102 39.55 170.592 39.2033 170.159 38.75C169.732 38.29 169.399 37.7233 169.159 37.05C168.919 36.3767 168.799 35.6033 168.799 34.73C168.799 34.0233 168.905 33.3633 169.119 32.75C169.339 32.1367 169.652 31.6067 170.059 31.16C170.465 30.7067 170.962 30.3533 171.549 30.1C172.135 29.84 172.795 29.71 173.529 29.71C174.135 29.71 174.695 29.8133 175.209 30.02C175.729 30.22 176.175 30.5133 176.549 30.9C176.929 31.28 177.225 31.7533 177.439 32.32C177.652 32.88 177.759 33.52 177.759 34.24C177.759 34.52 177.729 34.7067 177.669 34.8C177.609 34.8933 177.495 34.94 177.329 34.94H170.559C170.579 35.58 170.665 36.1367 170.819 36.61C170.979 37.0833 171.199 37.48 171.479 37.8C171.759 38.1133 172.092 38.35 172.479 38.51C172.865 38.6633 173.299 38.74 173.779 38.74C174.225 38.74 174.609 38.69 174.929 38.59C175.255 38.4833 175.535 38.37 175.769 38.25C176.002 38.13 176.195 38.02 176.349 37.92C176.509 37.8133 176.645 37.76 176.759 37.76C176.905 37.76 177.019 37.8167 177.099 37.93L177.599 38.58ZM186.545 32.28C186.212 31.8333 185.852 31.5233 185.465 31.35C185.078 31.17 184.645 31.08 184.165 31.08C183.225 31.08 182.502 31.4167 181.995 32.09C181.488 32.7633 181.235 33.7233 181.235 34.97C181.235 35.63 181.292 36.1967 181.405 36.67C181.518 37.1367 181.685 37.5233 181.905 37.83C182.125 38.13 182.395 38.35 182.715 38.49C183.035 38.63 183.398 38.7 183.805 38.7C184.392 38.7 184.902 38.5667 185.335 38.3C185.775 38.0333 186.178 37.6567 186.545 37.17V32.28ZM188.325 25.27V40H187.265C187.012 40 186.852 39.8767 186.785 39.63L186.625 38.4C186.192 38.92 185.698 39.34 185.145 39.66C184.592 39.98 183.952 40.14 183.225 40.14C182.645 40.14 182.118 40.03 181.645 39.81C181.172 39.5833 180.768 39.2533 180.435 38.82C180.102 38.3867 179.845 37.8467 179.665 37.2C179.485 36.5533 179.395 35.81 179.395 34.97C179.395 34.2233 179.495 33.53 179.695 32.89C179.895 32.2433 180.182 31.6833 180.555 31.21C180.928 30.7367 181.385 30.3667 181.925 30.1C182.472 29.8267 183.085 29.69 183.765 29.69C184.385 29.69 184.915 29.7967 185.355 30.01C185.802 30.2167 186.198 30.5067 186.545 30.88V25.27H188.325Z" fill="white"/>
<rect x="0.5" y="0.5" width="239" height="64" rx="4.5" stroke="#F063B8"/>
</svg>
